<svg width="130" height="70" viewBox="0 0 130 70" fill="none" xmlns="http://www.w3.org/2000/svg">
    <g id="title">
        <path id="E" d="M8.57172 24.88V33.04H18.1717V36.76H8.57172V45.28H19.3717V49H4.01172V21.16H19.3717V24.88H8.57172Z" fill="white"/>
        <path id="P" d="M43.5455 29.48C43.5455 30.8933 43.2121 32.2267 42.5455 33.48C41.8788 34.7333 40.8121 35.76 39.3455 36.56C37.8788 37.3333 35.9988 37.72 33.7055 37.72H28.6655V49H24.1055V21.2H33.7055C35.8388 21.2 37.6388 21.5733 39.1055 22.32C40.5988 23.04 41.7055 24.0267 42.4255 25.28C43.1721 26.5333 43.5455 27.9333 43.5455 29.48ZM33.7055 34C35.4388 34 36.7321 33.6133 37.5855 32.84C38.4388 32.04 38.8655 30.92 38.8655 29.48C38.8655 26.44 37.1455 24.92 33.7055 24.92H28.6655V34H33.7055Z" fill="white"/>
        <path id="O" d="M59.4964 49.28C56.9097 49.28 54.5231 48.68 52.3364 47.48C50.1764 46.2533 48.4564 44.56 47.1764 42.4C45.9231 40.2133 45.2964 37.76 45.2964 35.04C45.2964 32.32 45.9231 29.88 47.1764 27.72C48.4564 25.56 50.1764 23.88 52.3364 22.68C54.5231 21.4533 56.9097 20.84 59.4964 20.84C62.1097 20.84 64.4964 21.4533 66.6564 22.68C68.8431 23.88 70.5631 25.56 71.8164 27.72C73.0697 29.88 73.6964 32.32 73.6964 35.04C73.6964 37.76 73.0697 40.2133 71.8164 42.4C70.5631 44.56 68.8431 46.2533 66.6564 47.48C64.4964 48.68 62.1097 49.28 59.4964 49.28ZM59.4964 45.32C61.3364 45.32 62.9764 44.9067 64.4164 44.08C65.8564 43.2267 66.9764 42.0267 67.7764 40.48C68.6031 38.9067 69.0164 37.0933 69.0164 35.04C69.0164 32.9867 68.6031 31.1867 67.7764 29.64C66.9764 28.0933 65.8564 26.9067 64.4164 26.08C62.9764 25.2533 61.3364 24.84 59.4964 24.84C57.6564 24.84 56.0164 25.2533 54.5764 26.08C53.1364 26.9067 52.0031 28.0933 51.1764 29.64C50.3764 31.1867 49.9764 32.9867 49.9764 35.04C49.9764 37.0933 50.3764 38.9067 51.1764 40.48C52.0031 42.0267 53.1364 43.2267 54.5764 44.08C56.0164 44.9067 57.6564 45.32 59.4964 45.32Z" fill="white"/>
        <path id="K" d="M93.1638 49L82.4038 36.56V49H77.8438V21.2H82.4038V33.88L93.2038 21.2H98.9238L86.8438 35.12L99.1238 49H93.1638Z" fill="white"/>
        <path id="A" d="M119.315 43.32H107.675L105.675 49H100.915L110.875 21.16H116.155L126.115 49H121.315L119.315 43.32ZM118.035 39.6L113.515 26.68L108.955 39.6H118.035Z" fill="white"/>
    </g>
</svg>
