<svg width="30" height="25" viewBox="0 0 30 25" fill="none" xmlns="http://www.w3.org/2000/svg">
    <g clip-path="url(#clip0)">
        <path d="M15.4007 12.1536C15.6674 12.3075 15.6674 12.6925 15.4007 12.8464L6.85019 17.7828C6.58352 17.9367 6.2502 17.7443 6.2502 17.4364L6.2502 7.56364C6.2502 7.25572 6.58352 7.06327 6.85019 7.21722L15.4007 12.1536Z" fill="#5FA8D3"/>
        <path d="M10.4007 12.1536C10.6674 12.3075 10.6674 12.6925 10.4007 12.8464L1.85019 17.7828C1.58352 17.9367 1.2502 17.7443 1.2502 17.4364L1.2502 7.56364C1.2502 7.25572 1.58352 7.06327 1.85019 7.21722L10.4007 12.1536Z" fill="black"/>
        <path d="M10.4007 12.1536C10.6674 12.3075 10.6674 12.6925 10.4007 12.8464L1.85019 17.7828C1.58352 17.9367 1.2502 17.7443 1.2502 17.4364L1.2502 7.56364C1.2502 7.25572 1.58352 7.06327 1.85019 7.21722L10.4007 12.1536Z" fill="#5FA8D3"/>
    </g>
    <defs>
        <clipPath id="clip0">
            <rect width="30" height="25" fill="white"/>
        </clipPath>
    </defs>
</svg>
